<?xml version="1.0" encoding="UTF-8"?>
<svg xmlns="http://www.w3.org/2000/svg" version="1.1" viewBox="0 0 180 180">
  <defs>
    <style>
      .cls-1 {
        fill: #ff3103;
      }
    </style>
  </defs>
  <!-- Generator: Adobe Illustrator 28.6.0, SVG Export Plug-In . SVG Version: 1.2.0 Build 709)  -->
  <g>
    <g id="Layer_1">
      <g id="Layer_1-2" data-name="Layer_1">
        <g id="Layer_1-2">
          <path class="cls-1" d="M0,168V11h11V0h157v11h12v157h-12v12H11v-12H0ZM52.4,135.3v-9.9h-9.7v9.8h9.8v9h27.3v-8.9h19.2v9h28.2v-9h9.1v-9.7h-9v9.8h-28.3v-28.3h9v-9h-37.1v9.1h9.1v28.2h-27.5,0ZM42.6,79v8.9h10.1v-9h8.8v-9.3h-9.1v-8.8h-10.1v8.9h-8.7v9.3s9.1,0,9.1,0ZM136.4,60.8h-9.5v9h-9.6v9.3h9.7v8.8h9.5v-9h8.7v-9.3h-9v-8.7h0ZM94,31h-9.5v9h-9.6v9.3h9.7v8.8h9.5v-9h8.7v-9.3h-9v-8.7h0Z"/>
        </g>
      </g>
    </g>
  </g>
</svg>